<svg width="34" height="48" viewBox="0 0 34 48" fill="none" xmlns="http://www.w3.org/2000/svg">
<path d="M3.02938 39.9332C2.17916 39.9332 1.57509 39.554 1.21717 38.7956C0.859255 38.0372 0.943745 37.3287 1.47064 36.67L13.0085 22.6613V9.99583H10.2443C9.96222 9.99583 9.72538 9.90003 9.53378 9.70843C9.34218 9.51683 9.24638 9.27932 9.24638 8.99592C9.24638 8.71251 9.34218 8.47567 9.53378 8.2854C9.72538 8.09513 9.96222 8 10.2443 8H23.756C24.0381 8 24.2749 8.0958 24.4665 8.2874C24.6581 8.479 24.7539 8.7165 24.7539 8.99991C24.7539 9.28332 24.6581 9.52015 24.4665 9.71042C24.2749 9.90069 24.0381 9.99583 23.756 9.99583H20.9918V22.6613L32.5277 36.672C33.0559 37.3293 33.1411 38.0372 32.7832 38.7956C32.4239 39.554 31.8198 39.9332 30.9709 39.9332H3.02938ZM3.02938 37.9374H30.9709L18.996 23.3679V9.99583H15.0043V23.3679L3.02938 37.9374Z" fill="black"/>
</svg>
