<svg width="34" height="32" viewBox="0 0 34 32" fill="none" xmlns="http://www.w3.org/2000/svg">
<path d="M8.38462 30.2825V23.1538H3.46154C2.8087 23.1538 2.1826 22.8945 1.72097 22.4329C1.25934 21.9713 1 21.3451 1 20.6923V3.46154C1 2.8087 1.25934 2.1826 1.72097 1.72097C2.1826 1.25934 2.8087 1 3.46154 1H30.5385C31.1913 1 31.8174 1.25934 32.279 1.72097C32.7407 2.1826 33 2.8087 33 3.46154V20.6923C33 21.3451 32.7407 21.9713 32.279 22.4329C31.8174 22.8945 31.1913 23.1538 30.5385 23.1538H17L9.43569 30.7182C9.34963 30.8044 9.23988 30.8632 9.12036 30.8871C9.00084 30.9109 8.87694 30.8987 8.76435 30.852C8.65177 30.8054 8.55558 30.7263 8.48798 30.6249C8.42037 30.5235 8.3844 30.4043 8.38462 30.2825Z" stroke="black" stroke-width="1.72308"/>
<path d="M8.38461 15.7692H25.6154M8.38461 8.38458H25.6154" stroke="black" stroke-width="1.72308" stroke-linecap="round"/>
</svg>
