<svg width="32" height="36" viewBox="0 0 32 36" fill="none" xmlns="http://www.w3.org/2000/svg">
<path d="M16 32.912C13.3106 33.245 10.5844 32.7299 8.20181 31.4388C5.81926 30.1476 3.89933 28.1447 2.71002 25.7097C1.52071 23.2747 1.12137 20.5291 1.56776 17.8561C2.01416 15.1832 3.28399 12.7164 5.20001 10.8L13.7216 2.27841C13.9016 2.09863 14.1456 1.99765 14.4 1.99765C14.6544 1.99765 14.8984 2.09863 15.0784 2.27841L23.6 10.8C25.295 12.4936 26.4892 14.6224 27.051 16.9516C27.6129 19.2808 27.5205 21.72 26.784 24M20.8 30.4L24 33.6L30.4 27.2" stroke="black" stroke-width="2.4" stroke-linecap="round" stroke-linejoin="round"/>
</svg>
