<svg width="21" height="20" viewBox="0 0 21 20" fill="none" xmlns="http://www.w3.org/2000/svg">
<path d="M7.94165 1.66666L4.92499 4.69166" stroke="#292D32" stroke-width="1.5" stroke-miterlimit="10" stroke-linecap="round" stroke-linejoin="round"/>
<path d="M13.2583 1.66666L16.275 4.69166" stroke="#292D32" stroke-width="1.5" stroke-miterlimit="10" stroke-linecap="round" stroke-linejoin="round"/>
<path d="M2.26666 6.54167C2.26666 5 3.09166 4.875 4.11666 4.875H17.0833C18.1083 4.875 18.9333 5 18.9333 6.54167C18.9333 8.33333 18.1083 8.20833 17.0833 8.20833H4.11666C3.09166 8.20833 2.26666 8.33333 2.26666 6.54167Z" stroke="#292D32" stroke-width="1.5"/>
<path d="M8.73334 11.6667V14.625" stroke="#292D32" stroke-width="1.5" stroke-linecap="round"/>
<path d="M12.5667 11.6667V14.625" stroke="#292D32" stroke-width="1.5" stroke-linecap="round"/>
<path d="M3.51666 8.33334L4.69166 15.5333C4.95833 17.15 5.6 18.3333 7.98333 18.3333H13.0083C15.6 18.3333 15.9833 17.2 16.2833 15.6333L17.6833 8.33334" stroke="#292D32" stroke-width="1.5" stroke-linecap="round"/>
</svg>
